<svg width="25" height="25" viewBox="0 0 25 25" fill="none" xmlns="http://www.w3.org/2000/svg">
<g opacity="0.5">
<path d="M17.4157 16.2324L21 19.8158L19.8158 21L16.2324 17.4157C14.8991 18.4846 13.2406 19.0659 11.5318 19.0635C7.37422 19.0635 4 15.6893 4 11.5318C4 7.37422 7.37422 4 11.5318 4C15.6893 4 19.0635 7.37422 19.0635 11.5318C19.0659 13.2406 18.4846 14.8991 17.4157 16.2324ZM15.737 15.6115C16.7991 14.5193 17.3922 13.0552 17.3898 11.5318C17.3898 8.29477 14.7679 5.67372 11.5318 5.67372C8.29477 5.67372 5.67372 8.29477 5.67372 11.5318C5.67372 14.7679 8.29477 17.3898 11.5318 17.3898C13.0552 17.3922 14.5193 16.7991 15.6115 15.737L15.737 15.6115Z" fill="#092E47"/>
</g>
</svg>
