<svg width="70" height="70" viewBox="0 0 70 70" fill="none" xmlns="http://www.w3.org/2000/svg">
<path d="M61.2505 32.0243L52.4995 20.1257L52.499 20.1252H43.7496L43.7486 43.923H37.9161V14.1768H0V49.8728H6.12748C6.80325 53.2671 9.74472 55.8223 13.272 55.8223C16.7998 55.8218 19.7407 53.2671 20.4164 49.8728H49.7301C50.4058 53.2671 53.3473 55.8223 56.8745 55.8223C60.4024 55.8223 63.3433 53.2671 64.019 49.8728H70V34.999L61.2505 32.0243ZM13.2719 52.8465C10.8598 52.8465 8.89693 50.8446 8.89693 48.3845C8.89693 45.9244 10.8598 43.9225 13.2719 43.9225C15.684 43.9225 17.6469 45.9244 17.6469 48.3845C17.6469 50.8446 15.6845 52.8465 13.2719 52.8465ZM46.6668 32.0243V26.0747H51.0418L55.4168 32.0243H46.6668ZM56.8753 52.8465C54.4631 52.8465 52.5003 50.8446 52.5003 48.3845C52.5003 45.9244 54.4631 43.9225 56.8753 43.9225C59.2874 43.9225 61.2502 45.9244 61.2502 48.3845C61.2502 50.8446 59.2874 52.8465 56.8753 52.8465Z" fill="white"/>
</svg>
