<svg width="60" height="60" viewBox="0 0 60 60" fill="none" xmlns="http://www.w3.org/2000/svg">
<path d="M27.1437 43.0765C27.1437 43.572 26.943 44.0471 26.5858 44.3975C26.2286 44.7478 25.7441 44.9446 25.239 44.9446H18.5724C18.0672 44.9446 17.5827 44.7478 17.2255 44.3975C16.8683 44.0471 16.6676 43.572 16.6676 43.0765C16.6676 42.581 16.8683 42.1059 17.2255 41.7555C17.5827 41.4052 18.0672 41.2084 18.5724 41.2084H25.239C25.7441 41.2084 26.2286 41.4052 26.5858 41.7555C26.943 42.1059 27.1437 42.581 27.1437 43.0765ZM41.4293 41.2084H34.7627C34.2575 41.2084 33.773 41.4052 33.4158 41.7555C33.0586 42.1059 32.8579 42.581 32.8579 43.0765C32.8579 43.572 33.0586 44.0471 33.4158 44.3975C33.773 44.7478 34.2575 44.9446 34.7627 44.9446H41.4293C41.9344 44.9446 42.4189 44.7478 42.7761 44.3975C43.1333 44.0471 43.334 43.572 43.334 43.0765C43.334 42.581 43.1333 42.1059 42.7761 41.7555C42.4189 41.4052 41.9344 41.2084 41.4293 41.2084ZM58.5719 52.4172C58.5719 52.9126 58.3713 53.3878 58.0141 53.7381C57.6569 54.0885 57.1724 54.2853 56.6672 54.2853H3.33443C2.82926 54.2853 2.34478 54.0885 1.98757 53.7381C1.63037 53.3878 1.42969 52.9126 1.42969 52.4172C1.42969 51.9217 1.63037 51.4465 1.98757 51.0962C2.34478 50.7458 2.82926 50.549 3.33443 50.549H7.14391V22.5271C7.14391 22.1801 7.24242 21.84 7.42839 21.5449C7.61435 21.2498 7.88044 21.0113 8.19683 20.8561C8.51322 20.701 8.86741 20.6353 9.21971 20.6665C9.57202 20.6976 9.90851 20.8244 10.1915 21.0325L22.3818 29.9996V22.5271C22.3818 22.1801 22.4804 21.84 22.6663 21.5449C22.8523 21.2498 23.1184 21.0113 23.4348 20.8561C23.7512 20.701 24.1053 20.6353 24.4576 20.6665C24.81 20.6976 25.1465 20.8244 25.4294 21.0325L34.6436 27.8279L37.4055 8.91304C37.5369 8.02585 37.9892 7.21457 38.6798 6.62726C39.3704 6.03995 40.2533 5.71576 41.1674 5.71387H45.5007C46.4147 5.71576 47.2976 6.03995 47.9882 6.62726C48.6789 7.21457 49.1311 8.02585 49.2625 8.91304L52.8339 33.479C52.85 33.5075 52.8582 33.5397 52.8577 33.5724V50.5023H56.6672C56.9214 50.5023 57.173 50.5521 57.4073 50.6489C57.6415 50.7457 57.8537 50.8874 58.0312 51.0659C58.2087 51.2443 58.348 51.4558 58.4409 51.6879C58.5337 51.92 58.5783 52.1679 58.5719 52.4172ZM38.1198 30.3732L40.1674 31.8677H48.7625L45.5007 9.45013H41.1674L38.1198 30.3732ZM10.9534 50.549H49.0482V35.604H39.5245C39.1135 35.5976 38.7144 35.4671 38.3817 35.2303L34.9531 32.7084L26.1913 26.2633V33.7358C26.1913 34.0828 26.0928 34.4229 25.9069 34.718C25.7209 35.0131 25.4548 35.2516 25.1384 35.4067C24.822 35.5619 24.4678 35.6276 24.1155 35.5964C23.7632 35.5653 23.4267 35.4385 23.1437 35.2303L10.9534 26.2633V50.549Z" fill="#0F64DA"/>
</svg>
