<svg width="52" height="52" viewBox="0 0 52 52" fill="none" xmlns="http://www.w3.org/2000/svg">
<path d="M26.1704 0.186137L25.8453 0.183016L25.8537 0.188873C25.792 0.189582 25.7301 0.190705 25.668 0.192481C18.9807 0.29671 12.5403 3.01733 7.85099 7.65498L7.85098 7.65499C2.1498 13.2948 -0.68814 21.6994 0.422601 29.646L0.422604 29.646C1.67112 38.5613 7.93355 46.5703 16.2411 49.9687L16.279 49.8762L16.2412 49.9687C25.6535 53.8165 36.921 51.481 44.0434 44.5265L44.0434 44.5265C50.0896 38.6187 52.9419 29.6121 51.4022 21.3043C49.2054 9.45383 38.0123 0.299831 26.1704 0.186137ZM25.8508 3.02776L25.9345 3.02697C29.3234 3.02949 32.6655 3.75454 35.7143 5.17754C44.5782 9.32119 50.1208 19.5896 48.7702 29.2474C47.6591 37.1764 42.0829 44.3089 34.6864 47.3359C26.317 50.7597 16.2853 48.6829 9.94603 42.4868L9.94596 42.4867C4.42431 37.0994 1.91274 28.8056 3.50863 21.258L3.50864 21.2579C5.67616 10.9742 15.4642 3.12547 25.8508 3.02776ZM32.7822 43.8302H32.8822V43.7302V32.889H43.7169H43.8169V32.789V19.2108V19.1108H43.7169H32.8822V8.26952V8.16952H32.7822H19.2122H19.1122V8.26952V19.1108H8.27753H8.17753V19.2108V32.789V32.889H8.27753H19.1122V43.7302V43.8302H19.2122H32.7822ZM21.8475 21.9473H21.9475V21.8473V11.0115H30.0415V21.8473V21.9473H30.1415H40.9762V30.0519H30.1415H30.0415V30.1519V40.9877H21.9475V30.1519V30.0519H21.8475H11.0128V21.9473H21.8475Z" fill="#0F64DA" stroke="#0F64DA" stroke-width="0.2"/>
</svg>
