<svg width="65" height="65" viewBox="0 0 65 65" fill="none" xmlns="http://www.w3.org/2000/svg">
<g clip-path="url(#clip0_242_1731)">
<path d="M23.8969 35.2363L21.6641 65.3462C32.4903 51.2047 31.7459 51.8813 32.4903 51.8813C33.2347 51.8813 32.4903 51.2045 43.3166 65.3462L41.0162 35.2363C35.6706 37.8752 29.2428 37.8071 23.8975 35.2363H23.8969Z" fill="white"/>
<path d="M43.3146 65.3462C32.4884 51.2047 33.2328 51.8813 32.4884 51.8813C31.744 51.8813 32.4884 51.2045 21.6621 65.3462L23.9625 35.2363C29.3757 37.8752 35.8035 37.8752 41.0812 35.2363L43.3146 65.3462Z" fill="white"/>
<path d="M32.4896 0.389648C22.9491 0.389648 15.168 8.17109 15.168 17.7113C15.168 23.8007 18.2807 29.3493 23.4904 32.5294C34.9255 39.4987 49.7435 31.2437 49.7435 17.7113C49.811 8.17122 42.0299 0.389648 32.4895 0.389648H32.4896ZM42.3006 27.4547C40.0002 29.7551 37.0904 31.1083 33.9103 31.4467C33.4369 31.5146 32.9635 31.5146 32.4896 31.5146C28.768 31.5146 25.3175 30.0935 22.6786 27.4546C14.0178 18.7938 20.1748 3.84038 32.4896 3.84038C44.8045 3.84038 50.8939 18.8616 42.3006 27.4547Z" fill="white"/>
<path d="M32.4895 6.07324C26.0617 6.07324 20.8516 11.2834 20.8516 17.7112C20.8516 27.9961 33.3692 33.3413 40.7444 25.9661C48.0519 18.591 42.8418 6.07324 32.4895 6.07324Z" fill="white"/>
</g>
<defs>
<clipPath id="clip0_242_1731">
<rect width="65" height="65" fill="white"/>
</clipPath>
</defs>
</svg>
