<svg width="60" height="60" viewBox="0 0 60 60" fill="none" xmlns="http://www.w3.org/2000/svg">
<path d="M54.5444 55.9147H54.5524L54.5533 55.9146C55.3053 55.9102 55.9137 55.299 55.9137 54.5459V5.45485C55.9137 4.69905 55.3008 4.08613 54.545 4.08613H26.4927C25.7369 4.08613 25.124 4.69905 25.124 5.45485V11.099H5.45386C4.69806 11.099 4.08516 11.7119 4.08516 12.4677V54.546C4.08516 55.3018 4.69806 55.9147 5.45386 55.9147H54.5444ZM53.1758 6.82376V53.1772H46.5624L46.5619 40.5197C46.5619 39.7639 45.9489 39.151 45.1932 39.151H35.8424C35.0866 39.151 34.4737 39.7639 34.4737 40.5197V53.1772H27.861V6.82376H53.1758ZM6.82222 13.8366H25.1243V53.1772H6.82222V13.8366ZM43.8257 41.8885V53.1772H37.2124V41.8885H43.8257ZM32.1371 31.1687C32.1371 31.9245 32.7501 32.5374 33.5063 32.5374H37.0124C37.7687 32.5374 38.3817 31.9245 38.3817 31.1687C38.3817 30.4128 37.7687 29.8 37.0124 29.8H33.5063C32.7501 29.8 32.1371 30.4128 32.1371 31.1687ZM42.657 31.1687C42.657 31.9244 43.2693 32.5374 44.0257 32.5374H47.5324C48.2882 32.5374 48.9011 31.9245 48.9011 31.1687C48.9011 30.4129 48.2882 29.8 47.5324 29.8H44.0257C43.2693 29.8 42.657 30.4129 42.657 31.1687ZM32.1371 14.8055C32.1371 15.5613 32.7501 16.1742 33.5063 16.1742H37.0124C37.7687 16.1742 38.3817 15.5613 38.3817 14.8055C38.3817 14.049 37.7687 13.4367 37.0124 13.4367H33.5063C32.7501 13.4367 32.1371 14.049 32.1371 14.8055ZM42.657 14.8055C42.657 15.5612 43.2693 16.1742 44.0257 16.1742H47.5324C48.2882 16.1742 48.9011 15.5613 48.9011 14.8055C48.9011 14.049 48.2881 13.4367 47.5324 13.4367H44.0257C43.2694 13.4367 42.657 14.0491 42.657 14.8055ZM32.1371 22.9869C32.1371 23.7433 32.75 24.3562 33.5063 24.3562H37.0124C37.7688 24.3562 38.3817 23.7433 38.3817 22.9869C38.3817 22.2311 37.7687 21.6182 37.0124 21.6182H33.5063C32.7501 21.6182 32.1371 22.2311 32.1371 22.9869ZM42.657 22.9869C42.657 23.7432 43.2692 24.3562 44.0257 24.3562H47.5324C48.2882 24.3562 48.9011 23.7432 48.9011 22.9869C48.9011 22.2311 48.2882 21.6182 47.5324 21.6182H44.0257C43.2693 21.6182 42.657 22.2312 42.657 22.9869ZM11.0976 44.0259C11.0976 44.7817 11.7105 45.3946 12.4663 45.3946H19.4796C20.2354 45.3946 20.8483 44.7817 20.8483 44.0259C20.8483 43.2696 20.2355 42.6567 19.4796 42.6567H12.4663C11.7104 42.6567 11.0976 43.2696 11.0976 44.0259ZM11.0976 33.5064C11.0976 34.2622 11.7105 34.8751 12.4663 34.8751H19.4796C20.2354 34.8751 20.8483 34.2622 20.8483 33.5064C20.8483 32.7501 20.2355 32.1372 19.4796 32.1372H12.4663C11.7104 32.1372 11.0976 32.7501 11.0976 33.5064ZM11.0976 22.9864C11.0976 23.7427 11.7104 24.3556 12.4663 24.3556H19.4796C20.2355 24.3556 20.8483 23.7427 20.8483 22.9864C20.8483 22.2306 20.2354 21.6177 19.4796 21.6177H12.4663C11.7105 21.6177 11.0976 22.2306 11.0976 22.9864Z" fill="#0F64DA" stroke="#0F64DA" stroke-width="0.4"/>
</svg>
