<svg width="60" height="60" viewBox="0 0 60 60" fill="none" xmlns="http://www.w3.org/2000/svg">
<path d="M9.49757 36.2754H9.91674C10.689 46.7512 19.3922 55.0578 29.9988 55.0578C40.62 55.0578 49.3234 46.7658 50.0955 36.2754H50.5147C52.6057 36.2754 54.2225 34.1905 54.2225 31.5511C54.2225 29.5617 53.3114 27.9059 51.9584 27.1941C51.3436 17.8601 45.0012 9.95294 36.0256 7.39118C35.0515 4.97946 32.7047 3.27684 29.9699 3.27684C27.2209 3.27684 24.8734 4.9942 23.9001 7.40597C14.9672 9.99628 8.65362 17.8883 8.039 27.1941C6.69996 27.906 5.77489 29.5754 5.77489 31.5509C5.77425 34.1905 7.3921 36.2754 9.49757 36.2754ZM29.9993 51.9191C21.1025 51.9191 13.7958 45.0322 13.0253 36.2754H46.975C46.2176 45.0321 38.8952 51.9191 29.9993 51.9191ZM50.5093 33.1514H9.48929C9.48026 33.1488 9.4645 33.1417 9.44227 33.1261C9.41739 33.1086 9.38781 33.0829 9.35525 33.0483C9.2902 32.9792 9.21574 32.8775 9.14537 32.7429C9.00478 32.474 8.88167 32.0762 8.88167 31.5522C8.88167 30.9115 9.06446 30.484 9.23886 30.2166C9.3273 30.229 9.41942 30.241 9.51161 30.241H50.4872C50.5783 30.241 50.6792 30.2299 50.7614 30.2171C50.9346 30.4705 51.1172 30.8982 51.1172 31.5522C51.1172 32.0759 50.994 32.4737 50.8533 32.7427C50.7829 32.8773 50.7084 32.9792 50.6434 33.0483C50.6108 33.0829 50.5812 33.1086 50.5563 33.1261C50.5341 33.1417 50.5183 33.1488 50.5093 33.1514ZM36.1984 10.8205C43.1037 13.3595 47.9304 19.7022 48.5351 27.116H36.1984V10.8205ZM33.0923 9.94635V27.116H26.2054V9.85911C26.2054 7.59162 28.3883 5.82077 30.755 6.57166C32.1753 7.03905 33.0923 8.44128 33.0923 9.94635ZM10.8335 27.1158C11.4241 19.7163 16.2221 13.4023 23.0987 10.8488V27.1158H10.8335Z" fill="#0F64DA" stroke="#0F64DA" stroke-width="0.114286"/>
</svg>
